<?xml version="1.0" encoding="UTF-8" standalone="no"?>
<!-- Created with Inkscape (http://www.inkscape.org/) -->

<svg
   xmlns:dc="http://purl.org/dc/elements/1.1/"
   xmlns:cc="http://creativecommons.org/ns#"
   xmlns:rdf="http://www.w3.org/1999/02/22-rdf-syntax-ns#"
   xmlns:svg="http://www.w3.org/2000/svg"
   xmlns="http://www.w3.org/2000/svg"
   xmlns:sodipodi="http://sodipodi.sourceforge.net/DTD/sodipodi-0.dtd"
   xmlns:inkscape="http://www.inkscape.org/namespaces/inkscape"
   width="143.94562mm"
   height="30.944231mm"
   viewBox="0 0 143.94562 30.94423"
   version="1.1"
   id="svg1078"
   sodipodi:docname="logo.svg"
   inkscape:version="0.92.3 (2405546, 2018-03-11)">
  <defs
     id="defs1072">
    <inkscape:path-effect
       effect="spiro"
       id="path-effect865"
       is_visible="true" />
    <inkscape:path-effect
       effect="simplify"
       id="path-effect863"
       is_visible="true"
       steps="1"
       threshold="0.00243902"
       smooth_angles="360"
       helper_size="0"
       simplify_individual_paths="false"
       simplify_just_coalesce="false"
       simplifyindividualpaths="false"
       simplifyJustCoalesce="false" />
    <inkscape:path-effect
       effect="simplify"
       id="path-effect841"
       is_visible="true"
       steps="1"
       threshold="0.00243902"
       smooth_angles="360"
       helper_size="0"
       simplify_individual_paths="false"
       simplify_just_coalesce="false"
       simplifyindividualpaths="false"
       simplifyJustCoalesce="false" />
    <inkscape:path-effect
       effect="simplify"
       id="path-effect837"
       is_visible="true"
       steps="1"
       threshold="0.00243902"
       smooth_angles="360"
       helper_size="0"
       simplify_individual_paths="false"
       simplify_just_coalesce="false"
       simplifyindividualpaths="false"
       simplifyJustCoalesce="false" />
    <inkscape:path-effect
       effect="simplify"
       id="path-effect1498"
       is_visible="true"
       steps="1"
       threshold="0.00183981"
       smooth_angles="360"
       helper_size="0"
       simplify_individual_paths="false"
       simplify_just_coalesce="false"
       simplifyindividualpaths="false"
       simplifyJustCoalesce="false" />
    <inkscape:path-effect
       effect="bspline"
       id="path-effect1500"
       is_visible="true"
       weight="33.333333"
       steps="2"
       helper_size="0"
       apply_no_weight="true"
       apply_with_weight="true"
       only_selected="false" />
    <inkscape:path-effect
       effect="simplify"
       id="path-effect1504"
       is_visible="true"
       steps="1"
       threshold="0.00183981"
       smooth_angles="360"
       helper_size="0"
       simplify_individual_paths="false"
       simplify_just_coalesce="false"
       simplifyindividualpaths="false"
       simplifyJustCoalesce="false" />
    <inkscape:path-effect
       effect="bspline"
       id="path-effect1506"
       is_visible="true"
       weight="33.333333"
       steps="2"
       helper_size="0"
       apply_no_weight="true"
       apply_with_weight="true"
       only_selected="false" />
    <inkscape:path-effect
       effect="simplify"
       id="path-effect1516"
       is_visible="true"
       steps="1"
       threshold="0.00183981"
       smooth_angles="360"
       helper_size="0"
       simplify_individual_paths="false"
       simplify_just_coalesce="false"
       simplifyindividualpaths="false"
       simplifyJustCoalesce="false" />
    <inkscape:path-effect
       effect="bspline"
       id="path-effect1518"
       is_visible="true"
       weight="33.333333"
       steps="2"
       helper_size="0"
       apply_no_weight="true"
       apply_with_weight="true"
       only_selected="false" />
  </defs>
  <sodipodi:namedview
     id="base"
     pagecolor="#ffffff"
     bordercolor="#666666"
     borderopacity="1.0"
     inkscape:pageopacity="0.0"
     inkscape:pageshadow="2"
     inkscape:zoom="0.49497475"
     inkscape:cx="-5.3224579"
     inkscape:cy="-143.81877"
     inkscape:document-units="mm"
     inkscape:current-layer="layer1"
     showgrid="false"
     inkscape:window-width="1533"
     inkscape:window-height="849"
     inkscape:window-x="67"
     inkscape:window-y="27"
     inkscape:window-maximized="1"
     fit-margin-top="0"
     fit-margin-left="0"
     fit-margin-right="0"
     fit-margin-bottom="0" />
  <metadata
     id="metadata1075">
    <rdf:RDF>
      <cc:Work
         rdf:about="">
        <dc:format>image/svg+xml</dc:format>
        <dc:type
           rdf:resource="http://purl.org/dc/dcmitype/StillImage" />
        <dc:title />
      </cc:Work>
    </rdf:RDF>
  </metadata>
  <g
     inkscape:label="Layer 1"
     inkscape:groupmode="layer"
     id="layer1"
     transform="translate(22.82891,-93.851072)">
    <g
       aria-label="Σχολή Γονέων Ι.Μ.Σ.Ν."
       transform="matrix(0.26458333,0,0,0.26458333,19.241468,126.39028)"
       style="font-style:normal;font-weight:normal;font-size:15px;line-height:108.00000429%;font-family:sans-serif;letter-spacing:0px;word-spacing:0px;writing-mode:lr-tb;fill:#000000;fill-opacity:1;stroke:none;stroke-width:1px;stroke-linecap:butt;stroke-linejoin:miter;stroke-opacity:1"
       id="flowRoot824" />
    <g
       id="g1031"
       style="font-style:normal;font-weight:normal;font-size:15px;line-height:108.00000429%;font-family:sans-serif;letter-spacing:0px;word-spacing:0px;writing-mode:lr-tb;fill:#000000;fill-opacity:1;stroke:none;stroke-width:1px;stroke-linecap:butt;stroke-linejoin:miter;stroke-opacity:1"
       transform="matrix(0.26458333,0,0,0.26458333,19.241468,126.39028)"
       aria-label="Σχολή Γονέων Ι.Μ.Σ.Ν." />
    <g
       id="g889"
       inkscape:export-xdpi="80"
       inkscape:export-ydpi="80">
      <g
         id="g876">
        <ellipse
           style="color:#000000;clip-rule:nonzero;display:inline;overflow:visible;visibility:visible;opacity:1;isolation:auto;mix-blend-mode:normal;color-interpolation:sRGB;color-interpolation-filters:linearRGB;solid-color:#000000;solid-opacity:1;vector-effect:none;fill:#ff7f2a;fill-opacity:1;fill-rule:nonzero;stroke:none;stroke-width:1.02362871;stroke-linecap:round;stroke-linejoin:round;stroke-miterlimit:4;stroke-dasharray:none;stroke-dashoffset:0;stroke-opacity:1;color-rendering:auto;image-rendering:auto;shape-rendering:auto;text-rendering:auto;enable-background:accumulate"
           id="path861"
           cx="7.9325519"
           cy="115.9772"
           rx="2.4068244"
           ry="3.1893163" />
        <ellipse
           style="color:#000000;clip-rule:nonzero;display:inline;overflow:visible;visibility:visible;opacity:1;isolation:auto;mix-blend-mode:normal;color-interpolation:sRGB;color-interpolation-filters:linearRGB;solid-color:#000000;solid-opacity:1;vector-effect:none;fill:#ff7f2a;fill-opacity:1;fill-rule:nonzero;stroke:none;stroke-width:1.17024422;stroke-linecap:round;stroke-linejoin:round;stroke-miterlimit:4;stroke-dasharray:none;stroke-dashoffset:0;stroke-opacity:1;color-rendering:auto;image-rendering:auto;shape-rendering:auto;text-rendering:auto;enable-background:accumulate"
           id="path859"
           ry="3.5498662"
           rx="3.1487484"
           cy="112.56017"
           cx="-1.2331928" />
        <ellipse
           style="color:#000000;clip-rule:nonzero;display:inline;overflow:visible;visibility:visible;opacity:1;isolation:auto;mix-blend-mode:normal;color-interpolation:sRGB;color-interpolation-filters:linearRGB;solid-color:#000000;solid-opacity:1;vector-effect:none;fill:#ff7f2a;fill-opacity:1;fill-rule:nonzero;stroke:none;stroke-width:1.69999993;stroke-linecap:round;stroke-linejoin:round;stroke-miterlimit:4;stroke-dasharray:none;stroke-dashoffset:0;stroke-opacity:1;color-rendering:auto;image-rendering:auto;shape-rendering:auto;text-rendering:auto;enable-background:accumulate"
           id="path857"
           cx="-10.010718"
           cy="108.89814"
           rx="2.9399648"
           ry="3.8754082" />
        <ellipse
           ry="2.1381562"
           rx="1.4699824"
           cy="117.57365"
           cx="-13.062827"
           id="ellipse863"
           style="color:#000000;clip-rule:nonzero;display:inline;overflow:visible;visibility:visible;opacity:1;isolation:auto;mix-blend-mode:normal;color-interpolation:sRGB;color-interpolation-filters:linearRGB;solid-color:#000000;solid-opacity:1;vector-effect:none;fill:#ff7f2a;fill-opacity:1;fill-rule:nonzero;stroke:none;stroke-width:0.89288372;stroke-linecap:round;stroke-linejoin:round;stroke-miterlimit:4;stroke-dasharray:none;stroke-dashoffset:0;stroke-opacity:1;color-rendering:auto;image-rendering:auto;shape-rendering:auto;text-rendering:auto;enable-background:accumulate" />
        <g
           id="g882"
           inkscape:export-xdpi="80"
           inkscape:export-ydpi="80">
          <g
             id="g1071"
             style="font-style:normal;font-weight:normal;font-size:15px;line-height:108.00000429%;font-family:sans-serif;letter-spacing:0px;word-spacing:0px;writing-mode:lr-tb;fill:#000000;fill-opacity:1;stroke:none;stroke-width:1px;stroke-linecap:butt;stroke-linejoin:miter;stroke-opacity:1"
             transform="matrix(0.23312613,0,0,0.23807726,23.775379,125.72535)"
             aria-label="Σχολή Γονέων Ι.Μ.Σ.Ν.">
            <path
               inkscape:connector-curvature="0"
               d="m 238.6625,-12.639825 q 1.8,0 3,1.266667 1.26667,1.2 1.26667,2.9999998 0,1.7333333 -1.2,2.9999999 -1.2,1.1999999 -3.06667,1.1999999 -1.8,0 -3.06667,-1.1999999 -1.2,-1.2666666 -1.2,-2.9999999 0,-1.7999998 1.26667,-2.9999998 1.26667,-1.266667 3,-1.266667 z m -11.22813,-38.333332 v 2.066667 q -3.53333,0 -4.93333,1 -1.33333,1 -1.33333,4.8 l 0.13333,39.1999983 h -1.53333 l -28.2,-43.4666653 v 34.533332 q 0,3.6666668 1.26666,4.7333334 1.26667,1 4.93334,1 v 2.0666666 h -14.73334 v -2.0666666 h 1.2 q 2.86667,0 3.93334,-1.3333333 1.13333,-1.3333333 1.13333,-4.4000001 v -34.533332 q 0,-1.4 -2.46667,-1.6 l -3.26666,0.06667 v -2.066667 h 13.33333 l 22.06667,34.333332 V -43.10649 q 0,-3.6 -1.4,-4.666667 -1.33334,-1.133333 -4.86667,-1.133333 v -2.066667 z m -56.74062,38.333332 q 1.8,0 3,1.266667 1.26667,1.2 1.26667,2.9999998 0,1.7333333 -1.2,2.9999999 -1.2,1.1999999 -3.06667,1.1999999 -1.8,0 -3.06667,-1.1999999 -1.2,-1.2666666 -1.2,-2.9999999 0,-1.7999998 1.26667,-2.9999998 1.26667,-1.266667 3,-1.266667 z m -15.9448,-8.333333 h 2.33333 l -0.93333,15.933333 h -39.06666 l 19.73333,-21.866666 -19.53333,-24.066666 h 37.86666 l 0.8,13.533333 h -2 q -1.06666,-6.066666 -3.93333,-8.733333 -2.86667,-2.733333 -8.86667,-2.733333 h -13.93333 l 15.26667,18.999999 -17.06667,19.666666 h 16.4 q 6.6,0 9.33333,-2.133333 2.66667,-2.2 3.6,-8.6 z m -49.94062,8.333333 q 1.8,0 3,1.266667 1.26666,1.2 1.26666,2.9999998 0,1.7333333 -1.2,2.9999999 -1.2,1.1999999 -3.06666,1.1999999 -1.8,0 -3.06667,-1.1999999 -1.2,-1.2666666 -1.2,-2.9999999 0,-1.7999998 1.26667,-2.9999998 1.26666,-1.266667 3,-1.266667 z M 91.064581,-7.1064916 V -5.039825 H 72.531249 v -2.0666666 h 6.199999 V -46.373157 l -16.133332,40.5999987 -1,0.066667 -14.733333,-40.4666657 v 33.333332 q 0,3.4000005 1.666666,5.0666671 2.466667,0.6666666 4.533334,0.6666666 V -5.039825 H 38.397917 v -2.0666666 h 1.133333 q 2.866666,0 4,-1.2666666 1.133333,-1.3333333 1.133333,-4.4666668 v -34.533332 q 0,-1.4 -2.466667,-1.6 l -3.266666,0.06667 v -2.066667 h 13.133333 l 12.266666,34.666666 13.999999,-34.666666 h 12.733333 v 2.066667 h -6.2 V -7.1064886 Z M 24.990623,-12.639825 q 1.8,0 3,1.266667 1.266666,1.2 1.266666,2.9999998 0,1.7333333 -1.2,2.9999999 -1.2,1.1999999 -3.066666,1.1999999 -1.8,0 -3.066667,-1.1999999 -1.2,-1.2666666 -1.2,-2.9999999 0,-1.7999998 1.266667,-2.9999998 1.266666,-1.266667 3,-1.266667 z M 12.333332,-7.1064916 V -5.039825 H -6.7333335 v -2.0666666 h 6.26666647 V -48.90649 H -6.7333335 v -2.066667 H 12.333332 v 2.066667 H 6.1333327 V -7.1064916 Z M 410.68123,-108.97316 q 4.86667,2.8 4.86667,10.000002 0,7.133334 -4.66667,13.266667 -4.6,6.066666 -11.2,10.333333 h -1.26667 q 0.2,-2 0.2,-4.066667 0,-7.133333 -2.8,-12.933333 -1.6,-3.466666 -4.8,-7.599999 -3.2,-4.133333 -3.2,-5.266663 0,-1.13334 1.2,-2.06667 1.2,-1 2,-1 5.06667,0 8,11.333332 2.06667,8.2 1.86667,15.533333 4.6,-3.333333 7.46667,-10.066666 2.93333,-6.733333 2.93333,-12.733329 0,-2.53334 -0.6,-4.73334 z m -27.16458,17.800002 q 0,6.4 -3.33333,10.533333 -3.26666,4.066667 -9.46666,4.066667 -2.86667,0 -5.33334,-1.533334 -2.4,-1.6 -3.6,-4.199999 -3.46666,5.799999 -9,5.799999 -5.53333,0 -8.4,-4.666666 -2.86666,-4.666667 -2.86666,-10 0,-5.333333 2.8,-10.733332 3.26666,-6.26667 7.8,-6.26667 2.53333,0 2.53333,2.53334 0,1.06666 -2.4,3.53333 -2.4,2.466666 -3.46667,4.266666 -2.06666,3.333333 -2.06666,7.333333 0,4 1.46666,7 1.73334,3.933333 5.06667,3.933333 1.8,0 4.46667,-1.4 2.73333,-1.4 2.66666,-3.133333 -1.46666,-2.133334 -1.46666,-7.066667 0,-5 3.26666,-5 3.26667,0 3.26667,3.333334 0,1.666666 -1,4.799999 -1,3.133334 -1,3.933334 0,1.733333 2.06667,3.266666 2.13333,1.466667 3.93333,1.466667 3.86667,0 6.13333,-4.066667 2.13333,-3.533333 2.13333,-8.066666 0,-4.533333 -1.99999,-8.333333 -0.86667,-1.533336 -3.06667,-3.999996 -2.13333,-2.46667 -2.4,-2.73334 -0.26667,-0.26666 -0.26667,-0.46666 0,-1.33334 1.26667,-1.33334 4.2,0 8.2,6.33334 4.06666,6.266662 4.06666,10.866662 z m -52.03436,-31.533332 q 0,1.46667 -0.86667,2.33333 l -8.8,9.06667 -1.46666,-0.26667 6.46666,-12.06666 q 0.66667,-1.26667 2.46667,-1.26667 2.2,0 2.2,2.2 z m 4,37.133332 v 0.533333 q 0.33333,4.2 -4.93333,6.866667 -4.46667,2.333333 -9.4,2.333333 -4.86667,0 -8.2,-2.2 -4.13334,-2.533333 -4.13334,-7.4 0,-4.933333 4.93334,-7.466666 -4,-1.866667 -4,-6.333333 0,-4.533336 3.86666,-6.799996 3.26667,-1.93334 7.2,-1.93334 4,0 7.93334,0.86667 5.53333,1.13333 5.53333,2.86667 0,0.93333 -0.86667,2.6 -0.86666,1.6 -1.73333,1.6 -0.8,0 -4.33333,-1.06667 -3.53334,-1.13333 -5.6,-1.13333 -9.13334,0 -9.13334,4.399996 0,1.4 1.2,2.6 1.26667,1.2 2.4,1.2 1.13334,0 3.2,-0.6 2.06667,-0.666667 3.26667,-0.666667 3.4,0 3.4,2.333333 0,3 -4.33333,3 -1.33334,0 -3.33334,-0.666666 l -1.93333,-0.733334 q -1.6,0 -3.26667,1.266667 -1.6,1.333333 -1.6,2.866666 0,2.8 3.93334,4.333334 2.86666,1.2 6.2,1.2 8,0 13.73333,-3.866667 z M 299.0927,-108.97316 q 4.86666,2.8 4.86666,10.000002 0,7.133334 -4.66666,13.266667 -4.6,6.066666 -11.2,10.333333 h -1.26667 q 0.2,-2 0.2,-4.066667 0,-7.133333 -2.8,-12.933333 -1.6,-3.466666 -4.8,-7.599999 -3.2,-4.133333 -3.2,-5.266663 0,-1.13334 1.2,-2.06667 1.2,-1 2,-1 5.06667,0 8,11.333332 2.06667,8.2 1.86667,15.533333 4.6,-3.333333 7.46666,-10.066666 2.93334,-6.733333 2.93334,-12.733329 0,-2.53334 -0.6,-4.73334 z m -29.74375,4.86667 q 4.2,4.399999 4.2,11.199999 0,6.8 -4.4,11.733333 -4.73333,5.133333 -11.4,5.133333 -6.66666,0 -11.13333,-4.4 -4.4,-4.4 -4.4,-11.533333 0,-7.133333 4.33333,-11.866662 4.33334,-4.73334 11.53334,-4.73334 7.2,0 11.26666,4.46667 z m -4.6,20.066665 q 2.46667,-5 2.46667,-10.066666 0,-5.133333 -1.6,-8.333329 -2,-4 -6.2,-4 -5.13333,0 -8.46667,6.13333 -2.6,5.199999 -2.6,10.266665 0,5 1.93334,8.333334 2.26666,3.999999 6.46666,3.999999 4.86667,0 8,-6.333333 z m -43.45103,-36.933335 -8.33334,0.0667 v 41.799998 h 6.26667 v 2.066667 h -18.73333 v -2.066667 h 6.26666 v -41.799998 h -6.26666 v -2.06667 h 37.4 l 0.2,13.53334 h -2 q -0.6,-7.13334 -4.86667,-9.6 -3.13333,-1.93334 -9.93333,-1.93334 z m -54.85731,-1.66666 q 0,1.46666 -0.93333,2.26666 l -8.8,9.06667 -1.46667,-0.26667 6.46667,-12.06666 q 0.66667,-1.26667 2.53333,-1.26667 2.2,0 2.2,2.26667 z m 5.06667,26.466662 q 0,3.066667 -0.73333,10.2 -0.66667,7.066666 -0.66667,10.133333 0,3.133333 0.66667,6.866666 0.66666,3.733334 0.66666,5.666667 0,0.933333 -1.13333,1.533333 -1.06667,0.6 -2.33333,0.6 -4.13334,0 -4.13334,-5.933333 0,-5.066667 2.4,-14.999999 2.46667,-10 2.46667,-15.2 0,-6.133329 -4.26667,-6.133329 -6.8,0 -10.46666,16.533329 -1.33334,6.533333 -1.93334,9.799999 h -5.26666 l 2.26666,-7.866666 q 1.33334,-5 1.33334,-7.733333 0,-8.666669 -4.66667,-8.666669 -0.73333,0 -1.66667,0.6 -0.93333,0.6 -1.26666,0.6 -1,0 -1.6,-1.26666 -0.53334,-1.26667 -0.53334,-2.66667 0,-1.46667 1.13334,-2.66667 1.13333,-1.2 2.93333,-1.2 6.26667,0 7.2,12.933336 1.46667,-5.599996 3.66667,-8.666666 2.86666,-4.26667 7.8,-4.26667 8.13333,0 8.13333,11.800002 z m -32.85729,16.2 q 0,1.4 -1,2.733333 -1,1.266667 -2.33333,1.266667 -3.4,0 -6.06667,-5.8 -2,-4.533333 -3.53333,-11.733333 l -1.8,-9.533329 q -3.26667,9.466662 -11.33333,25.999995 h -6.46667 q 15.26667,-30.066665 15.26667,-33.866665 0,-5.2 -3.73334,-6.53333 -1.6,-0.66667 -7.53333,-0.66667 -2.2,0 -2.93333,-0.66667 -0.73334,-0.73333 -0.73334,-2.86666 0,-1.33334 1.53334,-1.93334 1.6,-0.66666 2.93333,-0.66666 6,0 10.13333,6.53333 3.13334,4.66667 5.6,14 l 3.4,12.999999 q 1.2,3.066666 2.93334,5.066666 1.73333,1.933334 3.66666,3.533334 2,1.599999 2,2.133333 z M 98.906249,-104.10649 q 4.200001,4.399999 4.200001,11.199999 0,6.8 -4.400001,11.733333 -4.733333,5.133333 -11.4,5.133333 -6.666666,0 -11.133333,-4.4 -4.399999,-4.4 -4.399999,-11.533333 0,-7.133333 4.333333,-11.866662 4.333333,-4.73334 11.533333,-4.73334 7.199999,0 11.266666,4.46667 z m -4.6,20.066665 q 2.466667,-5 2.466667,-10.066666 0,-5.133333 -1.6,-8.333329 -2,-4 -6.2,-4 -5.133333,0 -8.466666,6.13333 -2.6,5.199999 -2.6,10.266665 0,5 1.933333,8.333334 2.266666,3.999999 6.466666,3.999999 4.866667,0 8,-6.333333 z m -22.428128,17.733333 q 0,1.933333 -2.2,3.333333 -2.066666,1.466667 -4.2,1.466667 -4.999999,0 -7.799999,-8.266667 -1.066667,-3.199999 -2.666667,-12.333332 l -10.466666,19.799999 h -6.266667 q 4.2,-6.733333 14.066667,-25.599999 -1.333334,-4.4 -3.466667,-8.533333 -3,-5.799996 -5.933333,-5.799996 -1.066667,0 -2.133333,0.86666 -1,0.8 -1.2,0.8 -1,0 -1.733334,-0.93333 -0.733333,-0.93333 -0.733333,-2 0,-2.26667 1.333333,-3.6 1.4,-1.33333 3.666667,-1.33333 6.733333,0 11.399999,18.599995 5.4,-10.466665 8.666667,-17.733335 h 6.133333 l -12.066666,22.933335 q 1,4.933333 2.733333,9.8 2.666667,7.666666 4.933333,7.666666 0.933333,0 1.866667,-1.2 0.933333,-1.2 2.4,-1.2 1.466666,0 2.533333,1 1.133333,1.066667 1.133333,2.266667 z M 30.399998,-92.973158 h 2.333334 l -0.933334,15.933333 H -7.2666668 L 12.466666,-98.906491 -7.0666668,-122.97316 H 30.799998 l 0.8,13.53334 h -2 q -1.066666,-6.06667 -3.933333,-8.73334 -2.866666,-2.73333 -8.866666,-2.73333 H 2.8666662 l 15.2666658,19 -17.0666658,19.666665 H 17.466666 q 6.599999,0 9.333333,-2.133333 2.666666,-2.2 3.599999,-8.6 z M 240.6625,-12.639825 q 1.8,0 3,1.266667 1.26667,1.2 1.26667,2.9999998 0,1.7333333 -1.2,2.9999999 -1.2,1.1999999 -3.06667,1.1999999 -1.8,0 -3.06667,-1.1999999 -1.2,-1.2666666 -1.2,-2.9999999 0,-1.7999998 1.26667,-2.9999998 1.26667,-1.266667 3,-1.266667 z m -11.22813,-38.333332 v 2.066667 q -3.53333,0 -4.93333,1 -1.33333,1 -1.33333,4.8 l 0.13333,39.1999983 h -1.53333 l -28.2,-43.4666653 v 34.533332 q 0,3.6666668 1.26666,4.7333334 1.26667,1 4.93334,1 v 2.0666666 h -14.73334 v -2.0666666 h 1.2 q 2.86667,0 3.93334,-1.3333333 1.13333,-1.3333333 1.13333,-4.4000001 v -34.533332 q 0,-1.4 -2.46667,-1.6 l -3.26666,0.06667 v -2.066667 h 13.33333 l 22.06667,34.333332 V -43.10649 q 0,-3.6 -1.4,-4.666667 -1.33334,-1.133333 -4.86667,-1.133333 v -2.066667 z m -56.74062,38.333332 q 1.8,0 3,1.266667 1.26667,1.2 1.26667,2.9999998 0,1.7333333 -1.2,2.9999999 -1.2,1.1999999 -3.06667,1.1999999 -1.8,0 -3.06667,-1.1999999 -1.2,-1.2666666 -1.2,-2.9999999 0,-1.7999998 1.26667,-2.9999998 1.26667,-1.266667 3,-1.266667 z m -15.9448,-8.333333 h 2.33333 l -0.93333,15.933333 h -39.06666 l 19.73333,-21.866666 -19.53333,-24.066666 h 37.86666 l 0.8,13.533333 h -2 q -1.06666,-6.066666 -3.93333,-8.733333 -2.86667,-2.733333 -8.86667,-2.733333 h -13.93333 l 15.26667,18.999999 -17.06667,19.666666 h 16.4 q 6.6,0 9.33333,-2.133333 2.66667,-2.2 3.6,-8.6 z m -49.94062,8.333333 q 1.8,0 3,1.266667 1.26666,1.2 1.26666,2.9999998 0,1.7333333 -1.2,2.9999999 -1.2,1.1999999 -3.06666,1.1999999 -1.8,0 -3.06667,-1.1999999 -1.2,-1.2666666 -1.2,-2.9999999 0,-1.7999998 1.26667,-2.9999998 1.26666,-1.266667 3,-1.266667 z M 93.064582,-7.1064916 V -5.039825 H 74.53125 v -2.0666666 h 6.199999 V -46.373157 l -16.133332,40.5999987 -1,0.066667 -14.733333,-40.4666657 v 33.333332 q 0,3.4000005 1.666666,5.0666671 2.466667,0.6666666 4.533334,0.6666666 V -5.039825 H 40.397918 v -2.0666666 h 1.133333 q 2.866666,0 4,-1.2666666 1.133333,-1.3333333 1.133333,-4.4666668 v -34.533332 q 0,-1.4 -2.466667,-1.6 l -3.266666,0.06667 v -2.066667 h 13.133333 l 12.266666,34.666666 13.999999,-34.666666 h 12.733333 v 2.066667 h -6.2 V -7.1064886 Z M 26.990624,-12.639825 q 1.8,0 3,1.266667 1.266666,1.2 1.266666,2.9999998 0,1.7333333 -1.2,2.9999999 -1.2,1.1999999 -3.066666,1.1999999 -1.8,0 -3.066667,-1.1999999 -1.2,-1.2666666 -1.2,-2.9999999 0,-1.7999998 1.266667,-2.9999998 1.266666,-1.266667 3,-1.266667 z M 14.333333,-7.1064916 V -5.039825 H -4.7333322 V -7.1064916 H 1.5333343 V -48.90649 h -6.2666665 v -2.066667 H 14.333333 v 2.066667 H 8.133334 V -7.1064916 Z M 412.68123,-108.97316 q 4.86667,2.8 4.86667,10.000002 0,7.133334 -4.66667,13.266667 -4.6,6.066666 -11.2,10.333333 h -1.26667 q 0.2,-2 0.2,-4.066667 0,-7.133333 -2.8,-12.933333 -1.6,-3.466666 -4.8,-7.599999 -3.2,-4.133333 -3.2,-5.266663 0,-1.13334 1.2,-2.06667 1.2,-1 2,-1 5.06667,0 8,11.333332 2.06667,8.2 1.86667,15.533333 4.6,-3.333333 7.46667,-10.066666 2.93333,-6.733333 2.93333,-12.733329 0,-2.53334 -0.6,-4.73334 z m -27.16458,17.800002 q 0,6.4 -3.33333,10.533333 -3.26666,4.066667 -9.46666,4.066667 -2.86667,0 -5.33334,-1.533334 -2.4,-1.6 -3.6,-4.199999 -3.46666,5.799999 -9,5.799999 -5.53333,0 -8.4,-4.666666 -2.86666,-4.666667 -2.86666,-10 0,-5.333333 2.8,-10.733332 3.26666,-6.26667 7.8,-6.26667 2.53333,0 2.53333,2.53334 0,1.06666 -2.4,3.53333 -2.4,2.466666 -3.46667,4.266666 -2.06666,3.333333 -2.06666,7.333333 0,4 1.46666,7 1.73334,3.933333 5.06667,3.933333 1.8,0 4.46667,-1.4 2.73333,-1.4 2.66666,-3.133333 -1.46666,-2.133334 -1.46666,-7.066667 0,-5 3.26666,-5 3.26667,0 3.26667,3.333334 0,1.666666 -1,4.799999 -1,3.133334 -1,3.933334 0,1.733333 2.06667,3.266666 2.13333,1.466667 3.93333,1.466667 3.86667,0 6.13333,-4.066667 2.13333,-3.533333 2.13333,-8.066666 0,-4.533333 -1.99999,-8.333333 -0.86667,-1.533336 -3.06667,-3.999996 -2.13333,-2.46667 -2.4,-2.73334 -0.26667,-0.26666 -0.26667,-0.46666 0,-1.33334 1.26667,-1.33334 4.2,0 8.2,6.33334 4.06666,6.266662 4.06666,10.866662 z m -52.03436,-31.533332 q 0,1.46667 -0.86667,2.33333 l -8.8,9.06667 -1.46666,-0.26667 6.46666,-12.06666 q 0.66667,-1.26667 2.46667,-1.26667 2.2,0 2.2,2.2 z m 4,37.133332 v 0.533333 q 0.33333,4.2 -4.93333,6.866667 -4.46667,2.333333 -9.4,2.333333 -4.86667,0 -8.2,-2.2 -4.13334,-2.533333 -4.13334,-7.4 0,-4.933333 4.93334,-7.466666 -4,-1.866667 -4,-6.333333 0,-4.533336 3.86666,-6.799996 3.26667,-1.93334 7.2,-1.93334 4,0 7.93334,0.86667 5.53333,1.13333 5.53333,2.86667 0,0.93333 -0.86667,2.6 -0.86666,1.6 -1.73333,1.6 -0.8,0 -4.33333,-1.06667 -3.53334,-1.13333 -5.6,-1.13333 -9.13334,0 -9.13334,4.399996 0,1.4 1.2,2.6 1.26667,1.2 2.4,1.2 1.13334,0 3.2,-0.6 2.06667,-0.666667 3.26667,-0.666667 3.4,0 3.4,2.333333 0,3 -4.33333,3 -1.33334,0 -3.33334,-0.666666 l -1.93333,-0.733334 q -1.6,0 -3.26667,1.266667 -1.6,1.333333 -1.6,2.866666 0,2.8 3.93334,4.333334 2.86666,1.2 6.2,1.2 8,0 13.73333,-3.866667 z M 301.0927,-108.97316 q 4.86666,2.8 4.86666,10.000002 0,7.133334 -4.66666,13.266667 -4.6,6.066666 -11.2,10.333333 h -1.26667 q 0.2,-2 0.2,-4.066667 0,-7.133333 -2.8,-12.933333 -1.6,-3.466666 -4.8,-7.599999 -3.2,-4.133333 -3.2,-5.266663 0,-1.13334 1.2,-2.06667 1.2,-1 2,-1 5.06667,0 8,11.333332 2.06667,8.2 1.86667,15.533333 4.6,-3.333333 7.46666,-10.066666 2.93334,-6.733333 2.93334,-12.733329 0,-2.53334 -0.6,-4.73334 z m -29.74375,4.86667 q 4.2,4.399999 4.2,11.199999 0,6.8 -4.4,11.733333 -4.73333,5.133333 -11.4,5.133333 -6.66666,0 -11.13333,-4.4 -4.4,-4.4 -4.4,-11.533333 0,-7.133333 4.33333,-11.866662 4.33334,-4.73334 11.53334,-4.73334 7.2,0 11.26666,4.46667 z m -4.6,20.066665 q 2.46667,-5 2.46667,-10.066666 0,-5.133333 -1.6,-8.333329 -2,-4 -6.2,-4 -5.13333,0 -8.46667,6.13333 -2.6,5.199999 -2.6,10.266665 0,5 1.93334,8.333334 2.26666,3.999999 6.46666,3.999999 4.86667,0 8,-6.333333 z m -43.45103,-36.933335 -8.33334,0.0667 v 41.799998 h 6.26667 v 2.066667 h -18.73333 v -2.066667 h 6.26666 v -41.799998 h -6.26666 v -2.06667 h 37.4 l 0.2,13.53334 h -2 q -0.6,-7.13334 -4.86667,-9.6 -3.13333,-1.93334 -9.93333,-1.93334 z m -54.85731,-1.66666 q 0,1.46666 -0.93333,2.26666 l -8.8,9.06667 -1.46667,-0.26667 6.46667,-12.06666 q 0.66667,-1.26667 2.53333,-1.26667 2.2,0 2.2,2.26667 z m 5.06667,26.466662 q 0,3.066667 -0.73333,10.2 -0.66667,7.066666 -0.66667,10.133333 0,3.133333 0.66667,6.866666 0.66666,3.733334 0.66666,5.666667 0,0.933333 -1.13333,1.533333 -1.06667,0.6 -2.33333,0.6 -4.13334,0 -4.13334,-5.933333 0,-5.066667 2.4,-14.999999 2.46667,-10 2.46667,-15.2 0,-6.133329 -4.26667,-6.133329 -6.8,0 -10.46666,16.533329 -1.33334,6.533333 -1.93334,9.799999 h -5.26666 l 2.26666,-7.866666 q 1.33334,-5 1.33334,-7.733333 0,-8.666669 -4.66667,-8.666669 -0.73333,0 -1.66667,0.6 -0.93333,0.6 -1.26666,0.6 -1,0 -1.6,-1.26666 -0.53334,-1.26667 -0.53334,-2.66667 0,-1.46667 1.13334,-2.66667 1.13333,-1.2 2.93333,-1.2 6.26667,0 7.2,12.933336 1.46667,-5.599996 3.66667,-8.666666 2.86666,-4.26667 7.8,-4.26667 8.13333,0 8.13333,11.800002 z m -32.85729,16.2 q 0,1.4 -1,2.733333 -1,1.266667 -2.33333,1.266667 -3.4,0 -6.06667,-5.8 -2,-4.533333 -3.53333,-11.733333 l -1.8,-9.533329 q -3.26667,9.466662 -11.33333,25.999995 h -6.46667 q 15.26667,-30.066665 15.26667,-33.866665 0,-5.2 -3.73334,-6.53333 -1.6,-0.66667 -7.53333,-0.66667 -2.2,0 -2.93333,-0.66667 -0.73334,-0.73333 -0.73334,-2.86666 0,-1.33334 1.53334,-1.93334 1.6,-0.66666 2.93333,-0.66666 6,0 10.13333,6.53333 3.13334,4.66667 5.6,14 l 3.4,12.999999 q 1.2,3.066666 2.93334,5.066666 1.73333,1.933334 3.66666,3.533334 2,1.599999 2,2.133333 z m -39.74374,-24.133332 q 4.2,4.399999 4.2,11.199999 0,6.8 -4.4,11.733333 -4.733333,5.133333 -11.4,5.133333 -6.666666,0 -11.133333,-4.4 -4.399999,-4.4 -4.399999,-11.533333 0,-7.133333 4.333333,-11.866662 4.333333,-4.73334 11.533333,-4.73334 7.199999,0 11.266666,4.46667 z m -4.6,20.066665 q 2.466667,-5 2.466667,-10.066666 0,-5.133333 -1.6,-8.333329 -2,-4 -6.2,-4 -5.133333,0 -8.466666,6.13333 -2.6,5.199999 -2.6,10.266665 0,5 1.933333,8.333334 2.266666,3.999999 6.466666,3.999999 4.866667,0 8,-6.333333 z m -22.428128,17.733333 q 0,1.933333 -2.2,3.333333 -2.066666,1.466667 -4.2,1.466667 -4.999999,0 -7.799999,-8.266667 -1.066667,-3.199999 -2.666667,-12.333332 L 46.54479,-62.306492 h -6.266667 q 4.2,-6.733333 14.066667,-25.599999 -1.333334,-4.4 -3.466667,-8.533333 -3,-5.799996 -5.933333,-5.799996 -1.066667,0 -2.133333,0.86666 -1,0.8 -1.2,0.8 -1,0 -1.733334,-0.93333 -0.733333,-0.93333 -0.733333,-2 0,-2.26667 1.333333,-3.6 1.4,-1.33333 3.666667,-1.33333 6.733333,0 11.399999,18.599995 5.4,-10.466665 8.666667,-17.733335 h 6.133333 l -12.066666,22.933335 q 1,4.933333 2.733333,9.8 2.666667,7.666666 4.933333,7.666666 0.933333,0 1.866667,-1.2 0.933333,-1.2 2.4,-1.2 1.466666,0 2.533333,1 1.133333,1.066667 1.133333,2.266667 z M 32.399999,-92.973158 h 2.333334 l -0.933334,15.933333 H -5.2666655 L 14.466667,-98.906491 -5.0666655,-122.97316 H 32.799999 l 0.8,13.53334 h -2 q -1.066666,-6.06667 -3.933333,-8.73334 Q 24.8,-120.90649 18.8,-120.90649 H 4.8666675 l 15.2666655,19 -17.0666655,19.666665 H 19.466667 q 6.599999,0 9.333333,-2.133333 2.666666,-2.2 3.599999,-8.6 z M 240.6625,-12.639825 q 1.8,0 3,1.266667 1.26667,1.2 1.26667,2.9999998 0,1.7333333 -1.2,2.9999999 -1.2,1.1999999 -3.06667,1.1999999 -1.8,0 -3.06667,-1.1999999 -1.2,-1.2666666 -1.2,-2.9999999 0,-1.7999998 1.26667,-2.9999998 1.26667,-1.266667 3,-1.266667 z m -11.22813,-38.333332 v 2.066667 q -3.53333,0 -4.93333,1 -1.33333,1 -1.33333,4.8 l 0.13333,39.1999983 h -1.53333 l -28.2,-43.4666653 v 34.533332 q 0,3.6666668 1.26666,4.7333334 1.26667,1 4.93334,1 v 2.0666666 h -14.73334 v -2.0666666 h 1.2 q 2.86667,0 3.93334,-1.3333333 1.13333,-1.3333333 1.13333,-4.4000001 v -34.533332 q 0,-1.4 -2.46667,-1.6 l -3.26666,0.06667 v -2.066667 h 13.33333 l 22.06667,34.333332 V -43.10649 q 0,-3.6 -1.4,-4.666667 -1.33334,-1.133333 -4.86667,-1.133333 v -2.066667 z m -56.74062,38.333332 q 1.8,0 3,1.266667 1.26667,1.2 1.26667,2.9999998 0,1.7333333 -1.2,2.9999999 -1.2,1.1999999 -3.06667,1.1999999 -1.8,0 -3.06667,-1.1999999 -1.2,-1.2666666 -1.2,-2.9999999 0,-1.7999998 1.26667,-2.9999998 1.26667,-1.266667 3,-1.266667 z m -15.9448,-8.333333 h 2.33333 l -0.93333,15.933333 h -39.06666 l 19.73333,-21.866666 -19.53333,-24.066666 h 37.86666 l 0.8,13.533333 h -2 q -1.06666,-6.066666 -3.93333,-8.733333 -2.86667,-2.733333 -8.86667,-2.733333 h -13.93333 l 15.26667,18.999999 -17.06667,19.666666 h 16.4 q 6.6,0 9.33333,-2.133333 2.66667,-2.2 3.6,-8.6 z m -49.94062,8.333333 q 1.8,0 3,1.266667 1.26666,1.2 1.26666,2.9999998 0,1.7333333 -1.2,2.9999999 -1.2,1.1999999 -3.06666,1.1999999 -1.8,0 -3.06667,-1.1999999 -1.2,-1.2666666 -1.2,-2.9999999 0,-1.7999998 1.26667,-2.9999998 1.26666,-1.266667 3,-1.266667 z M 93.064582,-7.1064916 V -5.039825 H 74.53125 v -2.0666666 h 6.199999 V -46.373157 l -16.133332,40.5999987 -1,0.066667 -14.733333,-40.4666657 v 33.333332 q 0,3.4000005 1.666666,5.0666671 2.466667,0.6666666 4.533334,0.6666666 V -5.039825 H 40.397918 v -2.0666666 h 1.133333 q 2.866666,0 4,-1.2666666 1.133333,-1.3333333 1.133333,-4.4666668 v -34.533332 q 0,-1.4 -2.466667,-1.6 l -3.266666,0.06667 v -2.066667 h 13.133333 l 12.266666,34.666666 13.999999,-34.666666 h 12.733333 v 2.066667 h -6.2 V -7.1064886 Z M 26.990624,-12.639825 q 1.8,0 3,1.266667 1.266666,1.2 1.266666,2.9999998 0,1.7333333 -1.2,2.9999999 -1.2,1.1999999 -3.066666,1.1999999 -1.8,0 -3.066667,-1.1999999 -1.2,-1.2666666 -1.2,-2.9999999 0,-1.7999998 1.266667,-2.9999998 1.266666,-1.266667 3,-1.266667 z M 14.333333,-7.1064916 V -5.039825 H -4.7333322 V -7.1064916 H 1.5333343 V -48.90649 h -6.2666665 v -2.066667 H 14.333333 v 2.066667 H 8.133334 V -7.1064916 Z M 412.68123,-108.97316 q 4.86667,2.8 4.86667,10.000002 0,7.133334 -4.66667,13.266667 -4.6,6.066666 -11.2,10.333333 h -1.26667 q 0.2,-2 0.2,-4.066667 0,-7.133333 -2.8,-12.933333 -1.6,-3.466666 -4.8,-7.599999 -3.2,-4.133333 -3.2,-5.266663 0,-1.13334 1.2,-2.06667 1.2,-1 2,-1 5.06667,0 8,11.333332 2.06667,8.2 1.86667,15.533333 4.6,-3.333333 7.46667,-10.066666 2.93333,-6.733333 2.93333,-12.733329 0,-2.53334 -0.6,-4.73334 z m -27.16458,17.800002 q 0,6.4 -3.33333,10.533333 -3.26666,4.066667 -9.46666,4.066667 -2.86667,0 -5.33334,-1.533334 -2.4,-1.6 -3.6,-4.199999 -3.46666,5.799999 -9,5.799999 -5.53333,0 -8.4,-4.666666 -2.86666,-4.666667 -2.86666,-10 0,-5.333333 2.8,-10.733332 3.26666,-6.26667 7.8,-6.26667 2.53333,0 2.53333,2.53334 0,1.06666 -2.4,3.53333 -2.4,2.466666 -3.46667,4.266666 -2.06666,3.333333 -2.06666,7.333333 0,4 1.46666,7 1.73334,3.933333 5.06667,3.933333 1.8,0 4.46667,-1.4 2.73333,-1.4 2.66666,-3.133333 -1.46666,-2.133334 -1.46666,-7.066667 0,-5 3.26666,-5 3.26667,0 3.26667,3.333334 0,1.666666 -1,4.799999 -1,3.133334 -1,3.933334 0,1.733333 2.06667,3.266666 2.13333,1.466667 3.93333,1.466667 3.86667,0 6.13333,-4.066667 2.13333,-3.533333 2.13333,-8.066666 0,-4.533333 -1.99999,-8.333333 -0.86667,-1.533336 -3.06667,-3.999996 -2.13333,-2.46667 -2.4,-2.73334 -0.26667,-0.26666 -0.26667,-0.46666 0,-1.33334 1.26667,-1.33334 4.2,0 8.2,6.33334 4.06666,6.266662 4.06666,10.866662 z m -52.03436,-31.533332 q 0,1.46667 -0.86667,2.33333 l -8.8,9.06667 -1.46666,-0.26667 6.46666,-12.06666 q 0.66667,-1.26667 2.46667,-1.26667 2.2,0 2.2,2.2 z m 4,37.133332 v 0.533333 q 0.33333,4.2 -4.93333,6.866667 -4.46667,2.333333 -9.4,2.333333 -4.86667,0 -8.2,-2.2 -4.13334,-2.533333 -4.13334,-7.4 0,-4.933333 4.93334,-7.466666 -4,-1.866667 -4,-6.333333 0,-4.533336 3.86666,-6.799996 3.26667,-1.93334 7.2,-1.93334 4,0 7.93334,0.86667 5.53333,1.13333 5.53333,2.86667 0,0.93333 -0.86667,2.6 -0.86666,1.6 -1.73333,1.6 -0.8,0 -4.33333,-1.06667 -3.53334,-1.13333 -5.6,-1.13333 -9.13334,0 -9.13334,4.399996 0,1.4 1.2,2.6 1.26667,1.2 2.4,1.2 1.13334,0 3.2,-0.6 2.06667,-0.666667 3.26667,-0.666667 3.4,0 3.4,2.333333 0,3 -4.33333,3 -1.33334,0 -3.33334,-0.666666 l -1.93333,-0.733334 q -1.6,0 -3.26667,1.266667 -1.6,1.333333 -1.6,2.866666 0,2.8 3.93334,4.333334 2.86666,1.2 6.2,1.2 8,0 13.73333,-3.866667 z M 301.0927,-108.97316 q 4.86666,2.8 4.86666,10.000002 0,7.133334 -4.66666,13.266667 -4.6,6.066666 -11.2,10.333333 h -1.26667 q 0.2,-2 0.2,-4.066667 0,-7.133333 -2.8,-12.933333 -1.6,-3.466666 -4.8,-7.599999 -3.2,-4.133333 -3.2,-5.266663 0,-1.13334 1.2,-2.06667 1.2,-1 2,-1 5.06667,0 8,11.333332 2.06667,8.2 1.86667,15.533333 4.6,-3.333333 7.46666,-10.066666 2.93334,-6.733333 2.93334,-12.733329 0,-2.53334 -0.6,-4.73334 z m -29.74375,4.86667 q 4.2,4.399999 4.2,11.199999 0,6.8 -4.4,11.733333 -4.73333,5.133333 -11.4,5.133333 -6.66666,0 -11.13333,-4.4 -4.4,-4.4 -4.4,-11.533333 0,-7.133333 4.33333,-11.866662 4.33334,-4.73334 11.53334,-4.73334 7.2,0 11.26666,4.46667 z m -4.6,20.066665 q 2.46667,-5 2.46667,-10.066666 0,-5.133333 -1.6,-8.333329 -2,-4 -6.2,-4 -5.13333,0 -8.46667,6.13333 -2.6,5.199999 -2.6,10.266665 0,5 1.93334,8.333334 2.26666,3.999999 6.46666,3.999999 4.86667,0 8,-6.333333 z m -43.45103,-36.933335 -8.33334,0.0667 v 41.799998 h 6.26667 v 2.066667 h -18.73333 v -2.066667 h 6.26666 v -41.799998 h -6.26666 v -2.06667 h 37.4 l 0.2,13.53334 h -2 q -0.6,-7.13334 -4.86667,-9.6 -3.13333,-1.93334 -9.93333,-1.93334 z m -54.85731,-1.66666 q 0,1.46666 -0.93333,2.26666 l -8.8,9.06667 -1.46667,-0.26667 6.46667,-12.06666 q 0.66667,-1.26667 2.53333,-1.26667 2.2,0 2.2,2.26667 z m 5.06667,26.466662 q 0,3.066667 -0.73333,10.2 -0.66667,7.066666 -0.66667,10.133333 0,3.133333 0.66667,6.866666 0.66666,3.733334 0.66666,5.666667 0,0.933333 -1.13333,1.533333 -1.06667,0.6 -2.33333,0.6 -4.13334,0 -4.13334,-5.933333 0,-5.066667 2.4,-14.999999 2.46667,-10 2.46667,-15.2 0,-6.133329 -4.26667,-6.133329 -6.8,0 -10.46666,16.533329 -1.33334,6.533333 -1.93334,9.799999 h -5.26666 l 2.26666,-7.866666 q 1.33334,-5 1.33334,-7.733333 0,-8.666669 -4.66667,-8.666669 -0.73333,0 -1.66667,0.6 -0.93333,0.6 -1.26666,0.6 -1,0 -1.6,-1.26666 -0.53334,-1.26667 -0.53334,-2.66667 0,-1.46667 1.13334,-2.66667 1.13333,-1.2 2.93333,-1.2 6.26667,0 7.2,12.933336 1.46667,-5.599996 3.66667,-8.666666 2.86666,-4.26667 7.8,-4.26667 8.13333,0 8.13333,11.800002 z m -32.85729,16.2 q 0,1.4 -1,2.733333 -1,1.266667 -2.33333,1.266667 -3.4,0 -6.06667,-5.8 -2,-4.533333 -3.53333,-11.733333 l -1.8,-9.533329 q -3.26667,9.466662 -11.33333,25.999995 h -6.46667 q 15.26667,-30.066665 15.26667,-33.866665 0,-5.2 -3.73334,-6.53333 -1.6,-0.66667 -7.53333,-0.66667 -2.2,0 -2.93333,-0.66667 -0.73334,-0.73333 -0.73334,-2.86666 0,-1.33334 1.53334,-1.93334 1.6,-0.66666 2.93333,-0.66666 6,0 10.13333,6.53333 3.13334,4.66667 5.6,14 l 3.4,12.999999 q 1.2,3.066666 2.93334,5.066666 1.73333,1.933334 3.66666,3.533334 2,1.599999 2,2.133333 z m -39.74374,-24.133332 q 4.2,4.399999 4.2,11.199999 0,6.8 -4.4,11.733333 -4.733333,5.133333 -11.4,5.133333 -6.666666,0 -11.133333,-4.4 -4.399999,-4.4 -4.399999,-11.533333 0,-7.133333 4.333333,-11.866662 4.333333,-4.73334 11.533333,-4.73334 7.199999,0 11.266666,4.46667 z m -4.6,20.066665 q 2.466667,-5 2.466667,-10.066666 0,-5.133333 -1.6,-8.333329 -2,-4 -6.2,-4 -5.133333,0 -8.466666,6.13333 -2.6,5.199999 -2.6,10.266665 0,5 1.933333,8.333334 2.266666,3.999999 6.466666,3.999999 4.866667,0 8,-6.333333 z m -22.428128,17.733333 q 0,1.933333 -2.2,3.333333 -2.066666,1.466667 -4.2,1.466667 -4.999999,0 -7.799999,-8.266667 -1.066667,-3.199999 -2.666667,-12.333332 L 46.54479,-62.306492 h -6.266667 q 4.2,-6.733333 14.066667,-25.599999 -1.333334,-4.4 -3.466667,-8.533333 -3,-5.799996 -5.933333,-5.799996 -1.066667,0 -2.133333,0.86666 -1,0.8 -1.2,0.8 -1,0 -1.733334,-0.93333 -0.733333,-0.93333 -0.733333,-2 0,-2.26667 1.333333,-3.6 1.4,-1.33333 3.666667,-1.33333 6.733333,0 11.399999,18.599995 5.4,-10.466665 8.666667,-17.733335 h 6.133333 l -12.066666,22.933335 q 1,4.933333 2.733333,9.8 2.666667,7.666666 4.933333,7.666666 0.933333,0 1.866667,-1.2 0.933333,-1.2 2.4,-1.2 1.466666,0 2.533333,1 1.133333,1.066667 1.133333,2.266667 z M 32.399999,-92.973158 h 2.333334 l -0.933334,15.933333 H -5.2666655 L 14.466667,-98.906491 -5.0666655,-122.97316 H 32.799999 l 0.8,13.53334 h -2 q -1.066666,-6.06667 -3.933333,-8.73334 Q 24.8,-120.90649 18.8,-120.90649 H 4.8666675 l 15.2666655,19 -17.0666655,19.666665 H 19.466667 q 6.599999,0 9.333333,-2.133333 2.666666,-2.2 3.599999,-8.6 z"
               style="font-style:normal;font-variant:normal;font-weight:normal;font-stretch:normal;font-size:66.66666412px;line-height:108.00000429%;font-family:'GFS Didot';-inkscape-font-specification:'GFS Didot';fill:#494949;fill-opacity:1"
               id="path1069" />
          </g>
          <g
             transform="translate(0,0.80180814)"
             id="g875">
            <path
               style="fill:#494949;fill-opacity:1;stroke-width:0.32046139"
               d="m -9.6835631,123.72824 c 0,0 -0.9785319,-3.11957 -2.5444279,-3.78995 -1.16771,-0.49991 -1.540031,-1.17052 -0.860297,-1.54952 0.549607,-0.30646 0.397681,-2.46759 -0.205202,-2.91899 -0.461006,-0.34518 -0.613195,-0.31915 -1.012162,0.1731 -0.618765,0.76343 -0.599982,2.42151 0.03279,2.89529 0.640813,0.47981 0.423722,0.77979 -1.007866,1.39267 -1.061417,0.4544 -1.918263,1.6085 -2.659201,3.58168 -0.387413,1.03172 -1.050973,0.32071 -1.253388,-1.34303 -0.551608,-4.53387 1.42955,-8.78587 4.913127,-10.54468 0.465521,-0.23503 0.482923,-0.47631 0.133005,-1.84395 -1.202815,-4.70116 3.715481,-7.76814 5.8035868,-3.61902 0.7378592,1.46615 0.8168785,2.73391 0.2602034,4.17459 -0.3167422,0.81974 -0.3051462,1.04437 0.059591,1.15406 0.7634259,0.22958 3.331395,2.50367 3.5595426,3.15218 0.4001925,1.13756 0.7969726,0.10447 0.44304,-1.15353 -0.4584414,-1.62944 0.09739,-3.53075 1.2768729,-4.36778 1.0097828,-0.7166 1.4368952,-0.76212 2.61333376,-0.27853 1.57365474,0.64686 2.44157974,3.63002 1.51202804,5.197 -0.3087336,0.52045 -0.2636109,0.68776 0.25304,0.93822 0.3458256,0.16766 1.2688223,0.89842 2.0511021,1.62394 0.7822789,0.72551 1.1119675,1.25134 1.3511813,1.16853 0.2969003,-0.10278 0.9404974,-0.81514 0.9393842,-2.24453 -0.00134,-1.6331 0.1398198,-2.23515 0.6410865,-2.73553 0.9529399,-0.95125 2.6606158,-0.85817 3.5861554,0.19548 0.63048,0.71774 0.711645,1.10823 0.569419,2.73946 -0.09123,1.04633 -0.03883,1.9024 0.116433,1.9024 0.455445,0 1.031724,3.24566 1.031724,3.69388 0,0.69285 0.02258,3.41125 -1.027576,2.40745 -0.550424,-0.52613 0.09231,-4.96104 -0.510229,-5.18817 l -1.3496156,-1.06503 0.700031,-1.0704 c 0.7840106,-1.19881 0.160137,-2.37818 -0.759783,-3.06698 -2.4737603,-0.39347 -3.2841001,5.74736 -2.6967349,9.02989 -0.3385542,4.46967 -1.8936802,-1.99736 -2.4955603,-3.56961 0,-0.73503 -1.5619879,-2.20319 -2.92104784,-2.74555 -1.59478865,-0.63646 -1.76123871,-0.97386 -0.9026728,-1.82977 0.7799414,-0.77752 0.7487971,-3.09841 -0.052295,-3.89701 -1.92505396,-1.91908 -3.84700356,1.34618 -2.23932686,3.80445 0.3944293,0.60312 0.7171432,1.14061 0.7171432,1.19444 0,0.0538 -0.4539034,0.26749 -1.0086792,0.4748 -0.8764854,0.32754 -0.9759703,0.48198 -0.7591212,1.17838 0.1372587,0.44078 0.249558,2.03418 0.249558,3.54089 0,2.14145 -0.102815,2.73945 -0.4709918,2.73945 -0.3643515,0 -0.4826797,-0.62024 -0.5226102,-2.73945 -0.077725,-4.12491 -1.6879815,-6.82735 -4.7435863,-7.96102 -0.8327587,-0.30896 -1.5146762,-0.66117 -1.5153712,-0.78268 -6.75e-4,-0.12152 0.301816,-0.66941 0.6722475,-1.21754 1.3451594,-1.99045 0.5408782,-5.10581 -1.3181485,-5.10581 -1.306549,0 -2.054463,1.08926 -2.054463,2.99209 0,1.03069 0.208505,1.73073 0.674774,2.26552 0.9221,1.05759 0.860794,1.25588 -0.528408,1.70908 -2.727348,0.88976 -4.693772,3.52087 -5.101238,6.82558 l -0.19471,1.57916 1.211538,-1.03697 c 1.096026,-0.93811 1.195006,-1.15577 1.038154,-2.28288 -0.236306,-1.69806 0.789911,-3.22442 2.167865,-3.22442 1.484469,0 2.249566,0.98349 2.254073,2.8975 0.0031,1.35343 0.148623,2.27734 0.895181,2.76122 1.3129278,0.85099 1.9996584,3.78995 1.9996584,3.78995 z m 14.148831,-3.361 c -40.7498059,-34.583867 -20.3749029,-17.29193 0,0 z"
               id="path836"
               inkscape:connector-curvature="0"
               sodipodi:nodetypes="csccccscscccsccccsccsccccssscccccccscccsccssscccssccsccsscscccc" />
            <path
               id="rect840"
               style="color:#000000;clip-rule:nonzero;display:inline;overflow:visible;visibility:visible;opacity:1;isolation:auto;mix-blend-mode:normal;color-interpolation:sRGB;color-interpolation-filters:linearRGB;solid-color:#000000;solid-opacity:1;vector-effect:none;fill:none;fill-opacity:1;fill-rule:nonzero;stroke:#595959;stroke-width:1.70000005;stroke-linecap:round;stroke-linejoin:round;stroke-miterlimit:4;stroke-dasharray:none;stroke-dashoffset:0;stroke-opacity:1;color-rendering:auto;image-rendering:auto;shape-rendering:auto;text-rendering:auto;enable-background:accumulate"
               d="m -3.5630572,93.899238 18.1777502,8.809142 -0.04223,2.91245 -19.2679315,-9.825725 z m -18.4158878,8.591012 18.307457,-8.588457 1.1040424,1.909401 -18.8525484,9.605046 c -0.368014,-0.63645 -0.190937,-2.28952 -0.558956,-2.92599 z"
               inkscape:connector-curvature="0"
               sodipodi:nodetypes="ccccccccccc" />
          </g>
        </g>
      </g>
    </g>
  </g>
</svg>
